<?xml version="1.0" encoding="UTF-8"?>
<svg width="149px" height="15px" viewBox="0 0 149 15" version="1.1" xmlns="http://www.w3.org/2000/svg" xmlns:xlink="http://www.w3.org/1999/xlink">
    <!-- Generator: Sketch 52.6 (67491) - http://www.bohemiancoding.com/sketch -->
    <title>loading</title>
    <desc>Created with Sketch.</desc>
    <g id="Design" stroke="none" stroke-width="1" fill="none" fill-rule="evenodd">
        <g id="HP" transform="translate(-111.000000, -202.000000)" fill="#FFFFFF">
            <path d="M111.349,215.943999 L111.349,203.023999 L114.009,203.023999 L114.009,213.606999 L119.861,213.606999 L119.861,215.943999 L111.349,215.943999 Z M138.899,216.114999 C135.175,216.114999 132.211,213.302999 132.211,209.483999 C132.211,205.664999 135.175,202.852999 138.899,202.852999 C142.623,202.852999 145.587,205.664999 145.587,209.483999 C145.587,213.302999 142.623,216.114999 138.899,216.114999 Z M138.899,213.739999 C141.255,213.739999 142.851,211.896999 142.851,209.483999 C142.851,207.070999 141.255,205.227999 138.899,205.227999 C136.543,205.227999 134.947,207.070999 134.947,209.483999 C134.947,211.896999 136.543,213.739999 138.899,213.739999 Z M157.158,215.943999 L162.839,202.909999 L163.067,202.909999 L168.976,215.943999 L166.183,215.943999 L165.461,214.195999 L160.445,214.195999 L159.723,215.943999 L157.158,215.943999 Z M161.338,211.972999 L164.511,211.972999 L163.694,210.015999 C163.333,209.160999 162.953,207.849999 162.915,207.716999 C162.896,207.773999 162.516,209.122999 162.155,210.015999 L161.338,211.972999 Z M182.124,215.943999 L182.124,203.023999 L186.095,203.023999 C190.066,203.023999 192.897,205.664999 192.897,209.483999 C192.897,213.302999 190.085,215.943999 186.095,215.943999 L182.124,215.943999 Z M184.784,213.606999 L185.962,213.606999 C188.831,213.606999 190.142,211.896999 190.142,209.483999 C190.142,207.070999 188.831,205.360999 185.962,205.360999 L184.784,205.360999 L184.784,213.606999 Z M206.596,215.943999 L206.596,203.023999 L209.256,203.023999 L209.256,215.943999 L206.596,215.943999 Z M233.747,216.057999 L227.23,209.939999 C226.584,209.331999 225.691,208.172999 225.691,208.172999 C225.691,208.172999 225.881,209.597999 225.881,210.528999 L225.881,215.943999 L223.392,215.943999 L223.392,202.909999 L223.658,202.909999 L230.175,209.027999 C230.802,209.616999 231.695,210.794999 231.695,210.794999 C231.695,210.794999 231.524,209.331999 231.524,208.438999 L231.524,203.023999 L234.013,203.023999 L234.013,216.057999 L233.747,216.057999 Z M254.685,216.114999 C250.467,216.114999 247.674,213.302999 247.674,209.483999 C247.674,205.664999 250.372,202.871999 254.267,202.871999 C256.376,202.871999 257.896,203.441999 258.96,204.657999 L257.155,206.443999 C256.509,205.778999 255.768,205.265999 254.267,205.265999 C251.93,205.265999 250.41,207.070999 250.41,209.483999 C250.41,211.896999 251.968,213.739999 254.685,213.739999 C255.521,213.739999 256.547,213.587999 257.212,213.264999 L257.212,211.174999 L254.096,211.174999 L254.096,208.837999 L259.644,208.837999 L259.644,214.613999 C258.903,215.221999 257.041,216.114999 254.685,216.114999 Z" id="loading"></path>
        </g>
    </g>
</svg>