<?xml version="1.0" encoding="utf-8"?>
<!-- Generator: Adobe Illustrator 26.0.1, SVG Export Plug-In . SVG Version: 6.00 Build 0)  -->
<svg version="1.1" id="Layer_1" xmlns="http://www.w3.org/2000/svg" xmlns:xlink="http://www.w3.org/1999/xlink" x="0px" y="0px"
	 viewBox="0 0 612 792" style="enable-background:new 0 0 612 792;" xml:space="preserve">
<style type="text/css">
	.st0{fill:none;}
	.st1{fill:#FCFCFC;}
</style>
<rect x="391" y="172.9" class="st0" width="134.2" height="431.9"/>
<g>
	<g>
		<path class="st1" d="M342.4,370.4c6,0,12,0,17.9,0c0.5,0,0.9,0,1.4,0c0.4,0,0.7,0.1,0.7,0.5c0,0.4-0.1,0.6-0.5,0.7
			c-0.1,0-0.1,0-0.2,0c-5.2,0.8-7.8,4.5-9.8,8.7c-5.9,11.9-10.8,24.2-16.1,36.4c-2.2,5-4.3,10.1-6.5,15.2c-0.5,1.2-0.9,2.5-1.9,3.4
			c-0.5,0.5-0.8,1.2-0.7,1.8c0.3,2-0.9,3.2-2.3,4.2c-1.8,1.3-3.1,3.1-4.4,4.9c-0.3,0.5-0.5,1.2-1.2,1.1c-0.7-0.1-0.7-0.8-0.9-1.4
			c-4.6-12.4-9.3-24.9-13.9-37.3c-1.8-4.9-3.7-9.8-5.5-14.7c-0.4-1.1-1-1.5-2.2-1.5c-2.8,0.1-5.6,0.1-8.4,0c-1,0-1.6,0.2-1.6,1.4
			c0,10.2,0,20.5,0.5,30.7c0.3,5.8,4.5,9.8,11.2,11.1c1,0.2,2.1,0.3,3.2,0.4c0.6,0.1,1.5-0.3,1.5,0.8c0,1.3-1,0.7-1.6,0.8
			c-0.8,0.1-1.6,0-2.4,0c-13.8,0-27.5,0-41.3,0c-0.4,0-0.8,0.1-1.2,0c-0.6-0.1-1.4,0.4-1.6-0.7c-0.1-1,0.7-0.9,1.3-1.1
			c1.2-0.3,2.3-0.5,3.5-0.8c7.3-2.1,9.3-4.5,9.8-12c0.7-9.8,0.7-19.7,0.7-29.5c0.1-14.4,0-28.7,0-43.1c0-3.3-0.3-6.6-0.7-9.9
			c-0.5-4.2-2.9-6.7-6.9-7.8c-2.4-0.6-4.8-1-7.2-1.5c-0.6-0.1-1.2-0.2-1.1-1.1c0.1-0.9,0.7-0.6,1.2-0.6c18.1-0.4,36.1-0.9,54.2,0.1
			c7.3,0.4,14.2,2.1,20.5,5.9c11.3,6.9,16.7,20.1,13.2,32.9C342.7,369.1,342.6,369.7,342.4,370.4z M286.1,355.1
			c0,3.7,0.1,8.5,0,13.2c0,1.6,0.3,2.2,2,2.1c5.1-0.1,10.2,0,15.4,0c2.6,0,5.2,0,7.8,0c0.4,0,0.9-0.1,1,0.4c0.1,0.6-0.4,0.7-0.9,0.8
			c-1.1,0.3-2.2,0.5-3.2,0.9c-2.8,1.1-3.5,2.6-2.9,5.5c0.6,2.9,1.7,5.6,2.5,8.4c0.4,1.4,1,1.4,2.2,0.9c10.9-4.7,16.7-13.2,17.6-24.8
			c0.9-11.9-4-21.2-14.4-27.2c-6.5-3.8-13.8-3.9-21.1-3.5c-4.7,0.3-4.3-0.4-5,4.9C286.2,342.4,286.5,348.3,286.1,355.1z
			 M309.6,391.7c0.8,2.2,1.7,4.2,2.3,6.2c0.4,1.3,1.1,1.5,2.3,1.5c8.1,0,16.2,0,24.3,0c1.4,0,2.1-0.4,2.6-1.7
			c1.4-3.9,3-7.6,4.6-11.5c1.1-2.8,2.2-5.5,2.8-8.5c0.4-2.2-0.2-3.5-2.1-4.6c-1-0.6-2.1-0.9-3.2-1.2c-1.1-0.3-1.6,0-2.2,1.1
			c-2.8,5.9-7.4,10.1-13.1,13.2C322.4,389.5,316.2,390.9,309.6,391.7z M326,434c0.4-0.6,0.5-0.8,0.6-1.1c4.1-9.9,8.2-19.8,12.4-29.7
			c0.6-1.4,0-1.5-1.2-1.5c-7,0-14.1,0-21.1,0c-3.3,0-3.3,0-2.1,3C318.3,414.3,322,423.9,326,434z M286.1,372.8c0,5.7,0,11,0,16.4
			c0,1,0.4,1.2,1.3,1.2c2.6-0.1,5.2-0.1,7.8-0.2c1.2,0,1.4-0.4,1-1.6c-1.3-3.6-2.8-7-4.5-10.4C290.6,376,288.9,374.2,286.1,372.8z"
			/>
	</g>
</g>
</svg>
