<?xml version="1.0" encoding="utf-8"?>
<!-- Generator: Adobe Illustrator 26.0.1, SVG Export Plug-In . SVG Version: 6.00 Build 0)  -->
<svg version="1.1" id="Layer_1" xmlns="http://www.w3.org/2000/svg" xmlns:xlink="http://www.w3.org/1999/xlink" x="0px" y="0px"
	 viewBox="0 0 149 15" style="enable-background:new 0 0 149 15;" xml:space="preserve">
<style type="text/css">
	.st0{fill:#FCFCFC;}
</style>
<desc>Created with Sketch.</desc>
<g>
	<g>
		<path class="st0" d="M10.3,5.9c0.6,0,1.2,0,1.8,0c0,0,0.1,0,0.1,0c0,0,0.1,0,0.1,0.1c0,0,0,0.1-0.1,0.1c0,0,0,0,0,0
			c-0.5,0.1-0.8,0.5-1,0.9c-0.6,1.2-1.1,2.5-1.7,3.7c-0.2,0.5-0.4,1-0.7,1.6c-0.1,0.1-0.1,0.3-0.2,0.4c0,0-0.1,0.1-0.1,0.2
			c0,0.2-0.1,0.3-0.2,0.4c-0.2,0.1-0.3,0.3-0.4,0.5c0,0,0,0.1-0.1,0.1c-0.1,0-0.1-0.1-0.1-0.1c-0.5-1.3-1-2.6-1.4-3.8
			c-0.2-0.5-0.4-1-0.6-1.5c0-0.1-0.1-0.2-0.2-0.2c-0.3,0-0.6,0-0.9,0c-0.1,0-0.2,0-0.2,0.1c0,1.1,0,2.1,0.1,3.2c0,0.6,0.5,1,1.2,1.1
			c0.1,0,0.2,0,0.3,0c0.1,0,0.2,0,0.2,0.1c0,0.1-0.1,0.1-0.2,0.1c-0.1,0-0.2,0-0.2,0c-1.4,0-2.8,0-4.2,0c0,0-0.1,0-0.1,0
			c-0.1,0-0.1,0-0.2-0.1c0-0.1,0.1-0.1,0.1-0.1c0.1,0,0.2-0.1,0.4-0.1c0.8-0.2,1-0.5,1-1.2c0.1-1,0.1-2,0.1-3c0-1.5,0-3,0-4.4
			c0-0.3,0-0.7-0.1-1C2.7,2.4,2.4,2.2,2,2.1C1.8,2,1.5,2,1.3,1.9c-0.1,0-0.1,0-0.1-0.1c0-0.1,0.1-0.1,0.1-0.1c1.9,0,3.7-0.1,5.6,0
			C7.6,1.8,8.3,2,9,2.4c1.2,0.7,1.7,2.1,1.4,3.4C10.3,5.8,10.3,5.8,10.3,5.9z M4.5,4.3c0,0.4,0,0.9,0,1.4c0,0.2,0,0.2,0.2,0.2
			c0.5,0,1.1,0,1.6,0c0.3,0,0.5,0,0.8,0c0,0,0.1,0,0.1,0C7.2,6,7.1,6,7.1,6c-0.1,0-0.2,0-0.3,0.1C6.5,6.3,6.4,6.4,6.4,6.7
			C6.5,7,6.6,7.3,6.7,7.6c0,0.1,0.1,0.1,0.2,0.1C8,7.2,8.6,6.3,8.7,5.1c0.1-1.2-0.4-2.2-1.5-2.8C6.6,1.9,5.8,1.9,5.1,1.9
			c-0.5,0-0.4,0-0.5,0.5C4.5,3,4.5,3.6,4.5,4.3z M6.9,8.1C7,8.3,7.1,8.5,7.1,8.7c0,0.1,0.1,0.2,0.2,0.2c0.8,0,1.7,0,2.5,0
			c0.1,0,0.2,0,0.3-0.2c0.1-0.4,0.3-0.8,0.5-1.2c0.1-0.3,0.2-0.6,0.3-0.9c0-0.2,0-0.4-0.2-0.5c-0.1-0.1-0.2-0.1-0.3-0.1
			c-0.1,0-0.2,0-0.2,0.1c-0.3,0.6-0.8,1-1.3,1.4C8.2,7.9,7.6,8,6.9,8.1z M8.6,12.5c0-0.1,0.1-0.1,0.1-0.1c0.4-1,0.8-2,1.3-3.1
			c0.1-0.1,0-0.2-0.1-0.2c-0.7,0-1.4,0-2.2,0c-0.3,0-0.3,0-0.2,0.3C7.8,10.4,8.2,11.4,8.6,12.5z M4.5,6.2c0,0.6,0,1.1,0,1.7
			C4.5,8,4.5,8,4.6,8c0.3,0,0.5,0,0.8,0c0.1,0,0.1,0,0.1-0.2C5.4,7.4,5.2,7.1,5.1,6.7C4.9,6.5,4.8,6.3,4.5,6.2z"/>
	</g>
</g>
</svg>
