<?xml version="1.0" encoding="UTF-8"?>
<svg width="13px" height="13px" viewBox="0 0 13 13" version="1.1" xmlns="http://www.w3.org/2000/svg" xmlns:xlink="http://www.w3.org/1999/xlink">
    <!-- Generator: Sketch 53.2 (72643) - https://sketchapp.com -->
    <title>Art4web logo</title>
    <desc>Created with Sketch.</desc>
    <g id="Design" stroke="none" stroke-width="1" fill="none" fill-rule="evenodd">
        <g id="HP" transform="translate(-1085.000000, -6379.000000)" fill="#E3BBB5">
            <g id="Body-2" transform="translate(391.000000, 450.000000)">
                <g id="Body">
                    <g id="Footer" transform="translate(409.000000, 5238.000000)">
                        <g id="Signature" transform="translate(285.000000, 673.000000)">
                            <path d="M0.978311707,29.0427531 C1.51884146,29.0428128 1.95710076,29.480753 1.95710076,30.0211976 C1.95710076,30.5617018 1.51884146,30.9999403 0.978311707,31 C0.437901294,31 1.13686838e-13,30.5617018 1.13686838e-13,30.0211976 C1.13686838e-13,29.480753 0.437901294,29.0427531 0.978311707,29.0427531 Z M12.5019537,18.4982018 C12.8097794,18.8058936 12.9999403,19.2309462 13,19.7006879 C13,20.4795533 12.4765352,21.1361057 11.7621934,21.3377133 C9.97007389,21.8437312 10.1942455,22.387875 10.4165673,24.4924942 C10.432797,24.6460716 10.4410908,24.8020356 10.4411504,24.9599685 C10.4411504,27.3908353 8.47038577,29.3615068 6.03982177,29.3613875 C4.8243906,29.3615068 3.7239391,28.8687942 2.92761389,28.0722679 C2.13099035,27.2759804 1.63837377,26.1755809 1.63837377,24.9602072 C1.63837377,22.5293404 3.60907876,20.5587883 6.0399411,20.5587883 C6.19794119,20.5587883 6.35397224,20.5670817 6.50767625,20.5834299 C8.61191757,20.8055622 9.15620638,21.0297829 9.66206919,19.237748 C9.86380571,18.5233804 10.5204488,18 11.2992914,18 C11.7689359,18 12.1940683,18.190331 12.5019537,18.4982018 Z" id="Art4web-logo"></path>
                        </g>
                    </g>
                </g>
            </g>
        </g>
    </g>
</svg>