<?xml version="1.0" encoding="UTF-8"?>
<svg width="162px" height="29px" viewBox="0 0 162 29" version="1.1" xmlns="http://www.w3.org/2000/svg" xmlns:xlink="http://www.w3.org/1999/xlink">
    <!-- Generator: Sketch 53.2 (72643) - https://sketchapp.com -->
    <title>Group</title>
    <desc>Created with Sketch.</desc>
    <g id="Design" stroke="none" stroke-width="1" fill="none" fill-rule="evenodd">
        <g id="HP-Scrolled-(mobile)" transform="translate(-41.000000, -36.000000)" fill-rule="nonzero">
            <g id="Top">
                <g id="Group" transform="translate(41.168960, 36.926399)">
                    <path d="M3.59039965,13.4323187 C1.75999983,13.4323187 0.577279944,12.5593588 -5.1159077e-13,11.4188789 L1.60511984,10.489599 C2.0275198,11.1795189 2.57663975,11.6863989 3.54815965,11.6863989 C4.36479957,11.6863989 4.88575952,11.2780789 4.88575952,10.714879 C4.88575952,10.039039 4.35071958,9.79967904 3.44959966,9.40543908 L2.95679971,9.1942391 C1.53471985,8.58879916 0.591359942,7.82847924 0.591359942,6.22335939 C0.591359942,4.74495954 1.71775983,3.61855965 3.47775966,3.61855965 C4.73087954,3.61855965 5.63199945,4.0550396 6.27967939,5.19551949 L4.74495954,6.1811194 C4.40703957,5.57567946 4.04095961,5.33631948 3.47775966,5.33631948 C2.90047972,5.33631948 2.53439975,5.70239944 2.53439975,6.1811194 C2.53439975,6.77247934 2.90047972,7.01183932 3.74527963,7.37791928 L4.23807959,7.58911926 C5.91359942,8.30719919 6.85695933,9.03935912 6.85695933,10.686719 C6.85695933,12.4607988 5.46303947,13.4323187 3.59039965,13.4323187 Z M15.8540783,13.3055987 L20.0639979,3.64671964 L20.2329579,3.64671964 L24.6118375,13.3055987 L22.5420777,13.3055987 L22.0070377,12.0102388 L18.2899181,12.0102388 L17.7548782,13.3055987 L15.8540783,13.3055987 Z M18.951678,10.362879 L21.3030378,10.362879 L20.6975979,8.91263913 C20.4300779,8.27903919 20.1484779,7.30751929 20.1203179,7.2089593 C20.1062379,7.25119929 19.824638,8.2508792 19.557118,8.91263913 L18.951678,10.362879 Z M34.3551964,13.3055987 L34.3551964,3.73119964 L36.3263962,3.73119964 L36.3263962,11.5737589 L40.6630358,11.5737589 L40.6630358,13.3055987 L34.3551964,13.3055987 Z M54.7711943,13.4323187 C52.0115146,13.4323187 49.8150348,11.3484789 49.8150348,8.51839917 C49.8150348,5.68831945 52.0115146,3.60447965 54.7711943,3.60447965 C57.5308741,3.60447965 59.7273539,5.68831945 59.7273539,8.51839917 C59.7273539,11.3484789 57.5308741,13.4323187 54.7711943,13.4323187 Z M54.7711943,11.6723189 C56.5171142,11.6723189 57.6998341,10.306559 57.6998341,8.51839917 C57.6998341,6.73023934 56.5171142,5.36447948 54.7711943,5.36447948 C53.0252745,5.36447948 51.8425546,6.73023934 51.8425546,8.51839917 C51.8425546,10.306559 53.0252745,11.6723189 54.7711943,11.6723189 Z M54.0531144,2.91455972 L54.7852743,0.267519974 L56.9535941,0.267519974 L55.4892743,2.91455972 L54.0531144,2.91455972 Z M77.524472,13.3900787 L72.6950325,8.85631914 C72.2163125,8.40575918 71.5545526,7.54687926 71.5545526,7.54687926 C71.5545526,7.54687926 71.6953526,8.60287916 71.6953526,9.29279909 L71.6953526,13.3055987 L69.8508728,13.3055987 L69.8508728,3.64671964 L70.0479927,3.64671964 L74.8774323,8.1804792 C75.3420722,8.61695916 76.0038322,9.48991907 76.0038322,9.48991907 C76.0038322,9.48991907 75.8771122,8.40575918 75.8771122,7.74399924 L75.8771122,3.73119964 L77.721592,3.73119964 L77.721592,13.3900787 L77.524472,13.3900787 Z M102.488309,13.4323187 C100.65791,13.4323187 99.4751897,12.5593588 98.8979097,11.4188789 L100.50303,10.489599 C100.92543,11.1795189 101.474549,11.6863989 102.446069,11.6863989 C103.262709,11.6863989 103.783669,11.2780789 103.783669,10.714879 C103.783669,10.039039 103.248629,9.79967904 102.347509,9.40543908 L101.854709,9.1942391 C100.43263,8.58879916 99.4892697,7.82847924 99.4892697,6.22335939 C99.4892697,4.74495954 100.61567,3.61855965 102.375669,3.61855965 C103.628789,3.61855965 104.529909,4.0550396 105.177589,5.19551949 L103.642869,6.1811194 C103.304949,5.57567946 102.938869,5.33631948 102.375669,5.33631948 C101.798389,5.33631948 101.432309,5.70239944 101.432309,6.1811194 C101.432309,6.77247934 101.798389,7.01183932 102.643189,7.37791928 L103.135989,7.58911926 C104.811509,8.30719919 105.754869,9.03935912 105.754869,10.686719 C105.754869,12.4607988 104.360949,13.4323187 102.488309,13.4323187 Z M120.369908,13.4323187 C117.610228,13.4323187 115.413748,11.3484789 115.413748,8.51839917 C115.413748,5.68831945 117.610228,3.60447965 120.369908,3.60447965 C123.129587,3.60447965 125.326067,5.68831945 125.326067,8.51839917 C125.326067,11.3484789 123.129587,13.4323187 120.369908,13.4323187 Z M120.369908,11.6723189 C122.115827,11.6723189 123.298547,10.306559 123.298547,8.51839917 C123.298547,6.73023934 122.115827,5.36447948 120.369908,5.36447948 C118.623988,5.36447948 117.441268,6.73023934 117.441268,8.51839917 C117.441268,10.306559 118.623988,11.6723189 120.369908,11.6723189 Z M141.602543,9.48989816 C141.601903,9.48441988 141.475825,8.40408002 141.475825,7.74399924 L141.475825,3.73119964 L143.320305,3.73119964 L143.320305,13.3900787 L143.123185,13.3900787 L138.293746,8.85631914 C137.816214,8.40687798 137.156551,7.55114218 137.153278,7.54689513 C137.154025,7.5525751 137.294066,8.60474067 137.294066,9.29279909 L137.294066,13.3055987 L135.449586,13.3055987 L135.449586,3.64671964 L135.646706,3.64671964 L140.476145,8.1804792 C140.939703,8.61594193 141.599462,9.48585251 141.602535,9.48990487 L141.602543,9.48989816 Z M139.223026,3.0412797 L136.984306,-1.66977543e-13 L138.504946,-1.66977543e-13 L139.293426,0.915199911 L140.095985,-1.66977543e-13 L141.616625,-1.66977543e-13 L139.377906,3.0412797 L139.223026,3.0412797 Z M153.063664,13.3055987 L157.273584,3.64671964 L157.442544,3.64671964 L161.821423,13.3055987 L159.751663,13.3055987 L159.216624,12.0102388 L155.499504,12.0102388 L154.964464,13.3055987 L153.063664,13.3055987 Z M156.161264,10.362879 L158.512624,10.362879 L157.907184,8.91263913 C157.639664,8.27903919 157.358064,7.30751929 157.329904,7.2089593 C157.315824,7.25119929 157.034224,8.2508792 156.766704,8.91263913 L156.161264,10.362879 Z" id="SALÓNSOŇA" fill="#6A3332"></path>
                    <path d="M3.59039965,27.4323187 C1.75999983,27.4323187 0.577279944,26.5593588 4.26325641e-13,25.4188789 L1.60511984,24.489599 C2.0275198,25.1795189 2.57663975,25.6863989 3.54815965,25.6863989 C4.36479957,25.6863989 4.88575952,25.2780789 4.88575952,24.714879 C4.88575952,24.039039 4.35071958,23.799679 3.44959966,23.4054391 L2.95679971,23.1942391 C1.53471985,22.5887992 0.591359942,21.8284792 0.591359942,20.2233594 C0.591359942,18.7449595 1.71775983,17.6185596 3.47775966,17.6185596 C4.73087954,17.6185596 5.63199945,18.0550396 6.27967939,19.1955195 L4.74495954,20.1811194 C4.40703957,19.5756795 4.04095961,19.3363195 3.47775966,19.3363195 C2.90047972,19.3363195 2.53439975,19.7023994 2.53439975,20.1811194 C2.53439975,20.7724793 2.90047972,21.0118393 3.74527963,21.3779193 L4.23807959,21.5891193 C5.91359942,22.3071992 6.85695933,23.0393591 6.85695933,24.686719 C6.85695933,26.4607988 5.46303947,27.4323187 3.59039965,27.4323187 Z M15.8540783,27.3055987 L20.0639979,17.6467196 L20.2329579,17.6467196 L24.6118375,27.3055987 L22.5420777,27.3055987 L22.0070377,26.0102388 L18.2899181,26.0102388 L17.7548782,27.3055987 L15.8540783,27.3055987 Z M18.951678,24.362879 L21.3030378,24.362879 L20.6975979,22.9126391 C20.4300779,22.2790392 20.1484779,21.3075193 20.1203179,21.2089593 C20.1062379,21.2511993 19.824638,22.2508792 19.557118,22.9126391 L18.951678,24.362879 Z M34.3551964,27.3055987 L34.3551964,17.7311996 L36.3263962,17.7311996 L36.3263962,25.5737589 L40.6630358,25.5737589 L40.6630358,27.3055987 L34.3551964,27.3055987 Z M54.7711943,27.4323187 C52.0115146,27.4323187 49.8150348,25.3484789 49.8150348,22.5183992 C49.8150348,19.6883194 52.0115146,17.6044796 54.7711943,17.6044796 C57.5308741,17.6044796 59.7273539,19.6883194 59.7273539,22.5183992 C59.7273539,25.3484789 57.5308741,27.4323187 54.7711943,27.4323187 Z M54.7711943,25.6723189 C56.5171142,25.6723189 57.6998341,24.306559 57.6998341,22.5183992 C57.6998341,20.7302393 56.5171142,19.3644795 54.7711943,19.3644795 C53.0252745,19.3644795 51.8425546,20.7302393 51.8425546,22.5183992 C51.8425546,24.306559 53.0252745,25.6723189 54.7711943,25.6723189 Z M54.0531144,16.9145597 L54.7852743,14.26752 L56.9535941,14.26752 L55.4892743,16.9145597 L54.0531144,16.9145597 Z M77.524472,27.3900787 L72.6950325,22.8563191 C72.2163125,22.4057592 71.5545526,21.5468793 71.5545526,21.5468793 C71.5545526,21.5468793 71.6953526,22.6028792 71.6953526,23.2927991 L71.6953526,27.3055987 L69.8508728,27.3055987 L69.8508728,17.6467196 L70.0479927,17.6467196 L74.8774323,22.1804792 C75.3420722,22.6169592 76.0038322,23.4899191 76.0038322,23.4899191 C76.0038322,23.4899191 75.8771122,22.4057592 75.8771122,21.7439992 L75.8771122,17.7311996 L77.721592,17.7311996 L77.721592,27.3900787 L77.524472,27.3900787 Z M102.488309,27.4323187 C100.65791,27.4323187 99.4751897,26.5593588 98.8979097,25.4188789 L100.50303,24.489599 C100.92543,25.1795189 101.474549,25.6863989 102.446069,25.6863989 C103.262709,25.6863989 103.783669,25.2780789 103.783669,24.714879 C103.783669,24.039039 103.248629,23.799679 102.347509,23.4054391 L101.854709,23.1942391 C100.43263,22.5887992 99.4892697,21.8284792 99.4892697,20.2233594 C99.4892697,18.7449595 100.61567,17.6185596 102.375669,17.6185596 C103.628789,17.6185596 104.529909,18.0550396 105.177589,19.1955195 L103.642869,20.1811194 C103.304949,19.5756795 102.938869,19.3363195 102.375669,19.3363195 C101.798389,19.3363195 101.432309,19.7023994 101.432309,20.1811194 C101.432309,20.7724793 101.798389,21.0118393 102.643189,21.3779193 L103.135989,21.5891193 C104.811509,22.3071992 105.754869,23.0393591 105.754869,24.686719 C105.754869,26.4607988 104.360949,27.4323187 102.488309,27.4323187 Z M120.369908,27.4323187 C117.610228,27.4323187 115.413748,25.3484789 115.413748,22.5183992 C115.413748,19.6883194 117.610228,17.6044796 120.369908,17.6044796 C123.129587,17.6044796 125.326067,19.6883194 125.326067,22.5183992 C125.326067,25.3484789 123.129587,27.4323187 120.369908,27.4323187 Z M120.369908,25.6723189 C122.115827,25.6723189 123.298547,24.306559 123.298547,22.5183992 C123.298547,20.7302393 122.115827,19.3644795 120.369908,19.3644795 C118.623988,19.3644795 117.441268,20.7302393 117.441268,22.5183992 C117.441268,24.306559 118.623988,25.6723189 120.369908,25.6723189 Z M141.602543,23.4898982 C141.601903,23.4844199 141.475825,22.40408 141.475825,21.7439992 L141.475825,17.7311996 L143.320305,17.7311996 L143.320305,27.3900787 L143.123185,27.3900787 L138.293746,22.8563191 C137.816214,22.406878 137.156551,21.5511422 137.153278,21.5468951 C137.154025,21.5525751 137.294066,22.6047407 137.294066,23.2927991 L137.294066,27.3055987 L135.449586,27.3055987 L135.449586,17.6467196 L135.646706,17.6467196 L140.476145,22.1804792 C140.939703,22.6159419 141.599462,23.4858525 141.602535,23.4899049 L141.602543,23.4898982 Z M139.223026,17.0412797 L136.984306,14 L138.504946,14 L139.293426,14.9151999 L140.095985,14 L141.616625,14 L139.377906,17.0412797 L139.223026,17.0412797 Z M153.063664,27.3055987 L157.273584,17.6467196 L157.442544,17.6467196 L161.821423,27.3055987 L159.751663,27.3055987 L159.216624,26.0102388 L155.499504,26.0102388 L154.964464,27.3055987 L153.063664,27.3055987 Z M156.161264,24.362879 L158.512624,24.362879 L157.907184,22.9126391 C157.639664,22.2790392 157.358064,21.3075193 157.329904,21.2089593 C157.315824,21.2511993 157.034224,22.2508792 156.766704,22.9126391 L156.161264,24.362879 Z" id="SALÓNSOŇA" fill="#FFFFFF"></path>
                </g>
            </g>
        </g>
    </g>
</svg>