<?xml version="1.0" encoding="utf-8"?>
<!-- Generator: Adobe Illustrator 26.0.1, SVG Export Plug-In . SVG Version: 6.00 Build 0)  -->
<svg version="1.1" id="Layer_1" xmlns="http://www.w3.org/2000/svg" xmlns:xlink="http://www.w3.org/1999/xlink" x="0px" y="0px"
	 viewBox="0 0 149 15" style="enable-background:new 0 0 149 15;" xml:space="preserve">
<style type="text/css">
	.st0{fill:#FCFCFC;}
</style>
<desc>Created with Sketch.</desc>
<g>
	<g>
		<path class="st0" d="M78.4,5.9c0.6,0,1.2,0,1.8,0c0,0,0.1,0,0.1,0c0,0,0.1,0,0.1,0.1c0,0,0,0.1-0.1,0.1c0,0,0,0,0,0
			c-0.5,0.1-0.8,0.5-1,0.9c-0.6,1.2-1.1,2.5-1.7,3.7c-0.2,0.5-0.4,1-0.7,1.6c-0.1,0.1-0.1,0.3-0.2,0.4c0,0-0.1,0.1-0.1,0.2
			c0,0.2-0.1,0.3-0.2,0.4c-0.2,0.1-0.3,0.3-0.4,0.5c0,0,0,0.1-0.1,0.1c-0.1,0-0.1-0.1-0.1-0.1c-0.5-1.3-1-2.6-1.4-3.8
			c-0.2-0.5-0.4-1-0.6-1.5c0-0.1-0.1-0.2-0.2-0.2c-0.3,0-0.6,0-0.9,0c-0.1,0-0.2,0-0.2,0.1c0,1.1,0,2.1,0.1,3.2c0,0.6,0.5,1,1.2,1.1
			c0.1,0,0.2,0,0.3,0c0.1,0,0.2,0,0.2,0.1c0,0.1-0.1,0.1-0.2,0.1c-0.1,0-0.2,0-0.2,0c-1.4,0-2.8,0-4.2,0c0,0-0.1,0-0.1,0
			c-0.1,0-0.1,0-0.2-0.1c0-0.1,0.1-0.1,0.1-0.1c0.1,0,0.2-0.1,0.4-0.1c0.8-0.2,1-0.5,1-1.2c0.1-1,0.1-2,0.1-3c0-1.5,0-3,0-4.4
			c0-0.3,0-0.7-0.1-1c-0.1-0.4-0.3-0.7-0.7-0.8C69.9,2,69.6,2,69.4,1.9c-0.1,0-0.1,0-0.1-0.1c0-0.1,0.1-0.1,0.1-0.1
			c1.9,0,3.7-0.1,5.6,0c0.7,0,1.5,0.2,2.1,0.6c1.2,0.7,1.7,2.1,1.4,3.4C78.4,5.8,78.4,5.8,78.4,5.9z M72.6,4.3c0,0.4,0,0.9,0,1.4
			c0,0.2,0,0.2,0.2,0.2c0.5,0,1.1,0,1.6,0c0.3,0,0.5,0,0.8,0c0,0,0.1,0,0.1,0c0,0.1,0,0.1-0.1,0.1c-0.1,0-0.2,0-0.3,0.1
			c-0.3,0.1-0.4,0.3-0.3,0.6c0.1,0.3,0.2,0.6,0.3,0.9c0,0.1,0.1,0.1,0.2,0.1c1.1-0.5,1.7-1.4,1.8-2.5c0.1-1.2-0.4-2.2-1.5-2.8
			c-0.7-0.4-1.4-0.4-2.2-0.4c-0.5,0-0.4,0-0.5,0.5C72.6,3,72.6,3.6,72.6,4.3z M75,8.1c0.1,0.2,0.2,0.4,0.2,0.6
			c0,0.1,0.1,0.2,0.2,0.2c0.8,0,1.7,0,2.5,0c0.1,0,0.2,0,0.3-0.2c0.1-0.4,0.3-0.8,0.5-1.2C78.8,7.3,78.9,7,79,6.7
			c0-0.2,0-0.4-0.2-0.5c-0.1-0.1-0.2-0.1-0.3-0.1c-0.1,0-0.2,0-0.2,0.1c-0.3,0.6-0.8,1-1.3,1.4C76.3,7.9,75.7,8,75,8.1z M76.7,12.5
			c0-0.1,0.1-0.1,0.1-0.1c0.4-1,0.8-2,1.3-3.1c0.1-0.1,0-0.2-0.1-0.2c-0.7,0-1.4,0-2.2,0c-0.3,0-0.3,0-0.2,0.3
			C75.9,10.4,76.3,11.4,76.7,12.5z M72.6,6.2c0,0.6,0,1.1,0,1.7c0,0.1,0,0.1,0.1,0.1c0.3,0,0.5,0,0.8,0c0.1,0,0.1,0,0.1-0.2
			c-0.1-0.4-0.3-0.7-0.5-1.1C73,6.5,72.9,6.3,72.6,6.2z"/>
	</g>
</g>
</svg>
