<?xml version="1.0" encoding="utf-8"?>
<!-- Generator: Adobe Illustrator 26.0.1, SVG Export Plug-In . SVG Version: 6.00 Build 0)  -->
<svg version="1.1" id="Layer_1" xmlns="http://www.w3.org/2000/svg" xmlns:xlink="http://www.w3.org/1999/xlink" x="0px" y="0px"
	 viewBox="0 0 162 29" style="enable-background:new 0 0 162 29;" xml:space="preserve">
<style type="text/css">
	.st0{fill:#6A3332;}
	.st1{fill:#FFFFFF;}
	.st2{fill:#FCFCFC;}
</style>
<desc>Created with Sketch.</desc>
<g id="Design">
	<g id="HP-Scrolled-_x28_mobile_x29_" transform="translate(-41.000000, -36.000000)">
		<g id="Top">
			<g id="Group" transform="translate(41.168960, 36.926399)">
				<path id="SALÓNSOŇA" class="st0" d="M3.6,13.4c-1.8,0-3-0.9-3.6-2l1.6-0.9c0.4,0.7,1,1.2,1.9,1.2c0.8,0,1.3-0.4,1.3-1
					c0-0.7-0.5-0.9-1.4-1.3L3,9.2c-1.4-0.6-2.4-1.4-2.4-3c0-1.5,1.1-2.6,2.9-2.6c1.3,0,2.2,0.4,2.8,1.6l-1.5,1
					C4.4,5.6,4,5.3,3.5,5.3c-0.6,0-0.9,0.4-0.9,0.8c0,0.6,0.4,0.8,1.2,1.2l0.5,0.2C5.9,8.3,6.9,9,6.9,10.7
					C6.9,12.5,5.5,13.4,3.6,13.4z M15.9,13.3l4.2-9.7h0.2l4.4,9.7h-2.1L22,12h-3.7l-0.5,1.3H15.9z M19,10.4h2.4l-0.6-1.5
					c-0.3-0.6-0.5-1.6-0.6-1.7c0,0-0.3,1-0.6,1.7L19,10.4z M34.4,13.3V3.7h2v7.8h4.3v1.7H34.4z M54.8,13.4c-2.8,0-5-2.1-5-4.9
					s2.2-4.9,5-4.9c2.8,0,5,2.1,5,4.9S57.5,13.4,54.8,13.4z M54.8,11.7c1.7,0,2.9-1.4,2.9-3.2s-1.2-3.2-2.9-3.2s-2.9,1.4-2.9,3.2
					S53,11.7,54.8,11.7z M54.1,2.9l0.7-2.6H57l-1.5,2.6H54.1z M77.5,13.4l-4.8-4.5c-0.5-0.5-1.1-1.3-1.1-1.3s0.1,1.1,0.1,1.7v4h-1.8
					V3.6H70l4.8,4.5C75.3,8.6,76,9.5,76,9.5s-0.1-1.1-0.1-1.7v-4h1.8v9.7H77.5z M102.5,13.4c-1.8,0-3-0.9-3.6-2l1.6-0.9
					c0.4,0.7,1,1.2,1.9,1.2c0.8,0,1.3-0.4,1.3-1c0-0.7-0.5-0.9-1.4-1.3l-0.5-0.2c-1.4-0.6-2.4-1.4-2.4-3c0-1.5,1.1-2.6,2.9-2.6
					c1.3,0,2.2,0.4,2.8,1.6l-1.5,1c-0.3-0.6-0.7-0.8-1.3-0.8c-0.6,0-0.9,0.4-0.9,0.8c0,0.6,0.4,0.8,1.2,1.2l0.5,0.2
					c1.7,0.7,2.6,1.5,2.6,3.1C105.8,12.5,104.4,13.4,102.5,13.4z M120.4,13.4c-2.8,0-5-2.1-5-4.9s2.2-4.9,5-4.9c2.8,0,5,2.1,5,4.9
					S123.1,13.4,120.4,13.4z M120.4,11.7c1.7,0,2.9-1.4,2.9-3.2s-1.2-3.2-2.9-3.2c-1.7,0-2.9,1.4-2.9,3.2S118.6,11.7,120.4,11.7z
					 M141.6,9.5c0,0-0.1-1.1-0.1-1.7v-4h1.8v9.7h-0.2l-4.8-4.5c-0.5-0.4-1.1-1.3-1.1-1.3c0,0,0.1,1.1,0.1,1.7v4h-1.8V3.6h0.2
					l4.8,4.5C140.9,8.6,141.6,9.5,141.6,9.5L141.6,9.5z M139.2,3L137,0h1.5l0.8,0.9l0.8-0.9h1.5l-2.2,3H139.2z M153.1,13.3l4.2-9.7
					h0.2l4.4,9.7h-2.1l-0.5-1.3h-3.7l-0.5,1.3H153.1z M156.2,10.4h2.4l-0.6-1.5c-0.3-0.6-0.5-1.6-0.6-1.7c0,0-0.3,1-0.6,1.7
					L156.2,10.4z"/>
				<path id="SALÓNSOŇA_00000088830966278153747760000009972368801092652988_" class="st1" d="M3.6,27.4c-1.8,0-3-0.9-3.6-2
					l1.6-0.9c0.4,0.7,1,1.2,1.9,1.2c0.8,0,1.3-0.4,1.3-1c0-0.7-0.5-0.9-1.4-1.3L3,23.2c-1.4-0.6-2.4-1.4-2.4-3
					c0-1.5,1.1-2.6,2.9-2.6c1.3,0,2.2,0.4,2.8,1.6l-1.5,1c-0.3-0.6-0.7-0.8-1.3-0.8c-0.6,0-0.9,0.4-0.9,0.8c0,0.6,0.4,0.8,1.2,1.2
					l0.5,0.2c1.7,0.7,2.6,1.5,2.6,3.1C6.9,26.5,5.5,27.4,3.6,27.4z M15.9,27.3l4.2-9.7h0.2l4.4,9.7h-2.1L22,26h-3.7l-0.5,1.3H15.9z
					 M19,24.4h2.4l-0.6-1.5c-0.3-0.6-0.5-1.6-0.6-1.7c0,0-0.3,1-0.6,1.7L19,24.4z M34.4,27.3v-9.6h2v7.8h4.3v1.7H34.4z M54.8,27.4
					c-2.8,0-5-2.1-5-4.9s2.2-4.9,5-4.9c2.8,0,5,2.1,5,4.9S57.5,27.4,54.8,27.4z M54.8,25.7c1.7,0,2.9-1.4,2.9-3.2
					c0-1.8-1.2-3.2-2.9-3.2s-2.9,1.4-2.9,3.2C51.8,24.3,53,25.7,54.8,25.7z M54.1,16.9l0.7-2.6H57l-1.5,2.6H54.1z M77.5,27.4
					l-4.8-4.5c-0.5-0.5-1.1-1.3-1.1-1.3s0.1,1.1,0.1,1.7v4h-1.8v-9.7H70l4.8,4.5c0.5,0.4,1.1,1.3,1.1,1.3s-0.1-1.1-0.1-1.7v-4h1.8
					v9.7H77.5z M102.5,27.4c-1.8,0-3-0.9-3.6-2l1.6-0.9c0.4,0.7,1,1.2,1.9,1.2c0.8,0,1.3-0.4,1.3-1c0-0.7-0.5-0.9-1.4-1.3l-0.5-0.2
					c-1.4-0.6-2.4-1.4-2.4-3c0-1.5,1.1-2.6,2.9-2.6c1.3,0,2.2,0.4,2.8,1.6l-1.5,1c-0.3-0.6-0.7-0.8-1.3-0.8c-0.6,0-0.9,0.4-0.9,0.8
					c0,0.6,0.4,0.8,1.2,1.2l0.5,0.2c1.7,0.7,2.6,1.5,2.6,3.1C105.8,26.5,104.4,27.4,102.5,27.4z M120.4,27.4c-2.8,0-5-2.1-5-4.9
					s2.2-4.9,5-4.9c2.8,0,5,2.1,5,4.9S123.1,27.4,120.4,27.4z M120.4,25.7c1.7,0,2.9-1.4,2.9-3.2c0-1.8-1.2-3.2-2.9-3.2
					c-1.7,0-2.9,1.4-2.9,3.2C117.4,24.3,118.6,25.7,120.4,25.7z M141.6,23.5c0,0-0.1-1.1-0.1-1.7v-4h1.8v9.7h-0.2l-4.8-4.5
					c-0.5-0.4-1.1-1.3-1.1-1.3c0,0,0.1,1.1,0.1,1.7v4h-1.8v-9.7h0.2l4.8,4.5C140.9,22.6,141.6,23.5,141.6,23.5L141.6,23.5z
					 M139.2,17l-2.2-3h1.5l0.8,0.9l0.8-0.9h1.5l-2.2,3H139.2z M153.1,27.3l4.2-9.7h0.2l4.4,9.7h-2.1l-0.5-1.3h-3.7l-0.5,1.3H153.1z
					 M156.2,24.4h2.4l-0.6-1.5c-0.3-0.6-0.5-1.6-0.6-1.7c0,0-0.3,1-0.6,1.7L156.2,24.4z"/>
			</g>
		</g>
	</g>
</g>
<g>
	<g>
		<path class="st2" d="M85.1,21c0.6,0,1.2,0,1.8,0c0,0,0.1,0,0.1,0c0,0,0.1,0,0.1,0.1c0,0,0,0.1-0.1,0.1c0,0,0,0,0,0
			c-0.5,0.1-0.8,0.4-1,0.9c-0.6,1.2-1.1,2.4-1.6,3.7c-0.2,0.5-0.4,1-0.6,1.5c-0.1,0.1-0.1,0.2-0.2,0.3c0,0-0.1,0.1-0.1,0.2
			c0,0.2-0.1,0.3-0.2,0.4c-0.2,0.1-0.3,0.3-0.4,0.5c0,0,0,0.1-0.1,0.1c-0.1,0-0.1-0.1-0.1-0.1c-0.5-1.2-0.9-2.5-1.4-3.7
			c-0.2-0.5-0.4-1-0.6-1.5c0-0.1-0.1-0.2-0.2-0.1c-0.3,0-0.6,0-0.8,0c-0.1,0-0.2,0-0.2,0.1c0,1,0,2.1,0.1,3.1c0,0.6,0.4,1,1.1,1.1
			c0.1,0,0.2,0,0.3,0c0.1,0,0.1,0,0.1,0.1c0,0.1-0.1,0.1-0.2,0.1c-0.1,0-0.2,0-0.2,0c-1.4,0-2.8,0-4.1,0c0,0-0.1,0-0.1,0
			c-0.1,0-0.1,0-0.2-0.1c0-0.1,0.1-0.1,0.1-0.1c0.1,0,0.2-0.1,0.3-0.1c0.7-0.2,0.9-0.5,1-1.2c0.1-1,0.1-2,0.1-3c0-1.4,0-2.9,0-4.3
			c0-0.3,0-0.7-0.1-1c-0.1-0.4-0.3-0.7-0.7-0.8c-0.2-0.1-0.5-0.1-0.7-0.2c-0.1,0-0.1,0-0.1-0.1c0-0.1,0.1-0.1,0.1-0.1
			c1.8,0,3.6-0.1,5.4,0c0.7,0,1.4,0.2,2.1,0.6c1.1,0.7,1.7,2,1.3,3.3C85.1,20.8,85.1,20.9,85.1,21z M79.4,19.4c0,0.4,0,0.8,0,1.3
			c0,0.2,0,0.2,0.2,0.2c0.5,0,1,0,1.5,0c0.3,0,0.5,0,0.8,0c0,0,0.1,0,0.1,0c0,0.1,0,0.1-0.1,0.1c-0.1,0-0.2,0-0.3,0.1
			c-0.3,0.1-0.3,0.3-0.3,0.6c0.1,0.3,0.2,0.6,0.3,0.8c0,0.1,0.1,0.1,0.2,0.1c1.1-0.5,1.7-1.3,1.8-2.5c0.1-1.2-0.4-2.1-1.5-2.7
			c-0.7-0.4-1.4-0.4-2.1-0.4c-0.5,0-0.4,0-0.5,0.5C79.4,18.2,79.4,18.8,79.4,19.4z M81.8,23.1c0.1,0.2,0.2,0.4,0.2,0.6
			c0,0.1,0.1,0.2,0.2,0.2c0.8,0,1.6,0,2.4,0c0.1,0,0.2,0,0.3-0.2c0.1-0.4,0.3-0.8,0.5-1.2c0.1-0.3,0.2-0.6,0.3-0.9
			c0-0.2,0-0.4-0.2-0.5c-0.1-0.1-0.2-0.1-0.3-0.1c-0.1,0-0.2,0-0.2,0.1c-0.3,0.6-0.7,1-1.3,1.3C83,22.9,82.4,23,81.8,23.1z
			 M83.4,27.4c0-0.1,0.1-0.1,0.1-0.1c0.4-1,0.8-2,1.2-3c0.1-0.1,0-0.2-0.1-0.2c-0.7,0-1.4,0-2.1,0c-0.3,0-0.3,0-0.2,0.3
			C82.6,25.4,83,26.3,83.4,27.4z M79.4,21.2c0,0.6,0,1.1,0,1.6c0,0.1,0,0.1,0.1,0.1c0.3,0,0.5,0,0.8,0c0.1,0,0.1,0,0.1-0.2
			c-0.1-0.4-0.3-0.7-0.5-1C79.9,21.5,79.7,21.4,79.4,21.2z"/>
	</g>
</g>
</svg>
