<?xml version="1.0" encoding="utf-8"?>
<!-- Generator: Adobe Illustrator 26.0.1, SVG Export Plug-In . SVG Version: 6.00 Build 0)  -->
<svg version="1.1" id="Layer_1" xmlns="http://www.w3.org/2000/svg" xmlns:xlink="http://www.w3.org/1999/xlink" x="0px" y="0px"
	 viewBox="0 0 149 15" style="enable-background:new 0 0 149 15;" xml:space="preserve">
<style type="text/css">
	.st0{fill:#FFFFFF;}
</style>
<desc>Created with Sketch.</desc>
<g id="Design">
	<g id="HP" transform="translate(-111.000000, -202.000000)">
		<g>
			<path class="st0" d="M111,203.6c0.9-0.1,2.1-0.2,3.9-0.2c1.7,0,2.9,0.3,3.7,0.9c0.8,0.6,1.3,1.5,1.3,2.7c0,1.1-0.4,2.1-1.1,2.7
				c-0.9,0.9-2.3,1.3-4.1,1.3c-0.4,0-0.8,0-1-0.1v4.1H111V203.6z M113.7,208.9c0.3,0.1,0.6,0.1,1,0.1c1.5,0,2.4-0.7,2.4-1.9
				c0-1.1-0.8-1.7-2.2-1.7c-0.6,0-1,0-1.2,0.1V208.9z"/>
			<path class="st0" d="M122.5,212l-0.9,3.1h-2.9l3.9-11.5h3.7l4,11.5h-3l-1-3.1H122.5z M125.8,210l-0.8-2.5
				c-0.2-0.7-0.4-1.4-0.6-2.1h0c-0.2,0.6-0.4,1.4-0.6,2.1l-0.8,2.5H125.8z"/>
			<path class="st0" d="M131.1,212.2c0.8,0.4,2,0.8,3.2,0.8c1.2,0,1.9-0.5,1.9-1.2c0-0.7-0.6-1.1-2.1-1.5c-2-0.6-3.5-1.6-3.5-3.5
				c0-2,1.8-3.5,4.6-3.5c1.5,0,2.5,0.3,3.3,0.6l-0.6,2.1c-0.5-0.2-1.4-0.6-2.7-0.6c-1.2,0-1.8,0.5-1.8,1.1c0,0.7,0.7,1.1,2.3,1.6
				c2.2,0.7,3.3,1.7,3.3,3.5c0,1.9-1.4,3.6-4.9,3.6c-1.4,0-2.9-0.4-3.6-0.8L131.1,212.2z"/>
			<path class="st0" d="M149.5,214.7c-0.5,0.3-1.8,0.6-3.4,0.6c-4.3,0-6.6-2.5-6.6-5.8c0-3.8,3-6.1,6.9-6.1c1.5,0,2.7,0.3,3.3,0.6
				l-0.6,2.1c-0.6-0.3-1.5-0.5-2.6-0.5c-2.3,0-4.1,1.3-4.1,3.8c0,2.2,1.5,3.7,4.1,3.7c0.9,0,2-0.2,2.5-0.4L149.5,214.7z"/>
			<path class="st0" d="M153.5,212l-0.9,3.1h-2.9l3.9-11.5h3.7l4,11.5h-3l-1-3.1H153.5z M156.8,210l-0.8-2.5
				c-0.2-0.7-0.4-1.4-0.6-2.1h0c-0.2,0.6-0.4,1.4-0.6,2.1l-0.8,2.5H156.8z"/>
			<path class="st0" d="M167.6,212l-0.9,3.1h-2.9l3.9-11.5h3.7l4,11.5h-3l-1-3.1H167.6z M170.9,210l-0.8-2.5
				c-0.2-0.7-0.4-1.4-0.6-2.1h0c-0.2,0.6-0.4,1.4-0.6,2.1l-0.8,2.5H170.9z"/>
			<path class="st0" d="M176.1,203.5h2.7v9.3h5.1v2.3h-7.9V203.5z"/>
			<path class="st0" d="M192.1,210.2h-4.8v2.6h5.3v2.2h-8.1v-11.5h7.8v2.2h-5.1v2.3h4.8V210.2z"/>
			<path class="st0" d="M200.4,215l-1.1-2.1c-0.5-0.9-0.8-1.4-1.2-2.1h0c-0.3,0.6-0.6,1.2-1,2.1L196,215h-3.2l3.7-5.8l-3.6-5.7h3.2
				l1.1,2.1c0.4,0.7,0.7,1.3,1,1.9h0c0.3-0.7,0.5-1.2,0.9-1.9l1.1-2.1h3.2l-3.6,5.6l3.8,5.9H200.4z"/>
			<path class="st0" d="M206.8,212l-0.9,3.1h-2.9l3.9-11.5h3.7l4,11.5h-3l-1-3.1H206.8z M210.1,210l-0.8-2.5
				c-0.2-0.7-0.4-1.4-0.6-2.1h0c-0.2,0.6-0.4,1.4-0.6,2.1l-0.8,2.5H210.1z"/>
			<path class="st0" d="M215.3,215v-11.5h3.4l2.6,4.1c0.8,1.3,1.5,2.8,2.1,4.2l0,0c-0.2-1.6-0.2-3-0.2-4.7v-3.6h2.5V215h-3l-2.7-4.5
				c-0.8-1.3-1.6-2.8-2.3-4.3l-0.1,0c0.1,1.7,0.1,3.2,0.1,5v3.8H215.3z"/>
			<path class="st0" d="M227.1,203.7c1.1-0.2,2.5-0.3,3.9-0.3c2.4,0,4,0.4,5.2,1.3c1.3,0.9,2.1,2.3,2.1,4.2c0,2.2-0.9,3.7-2,4.6
				c-1.4,1.1-3.5,1.6-5.9,1.6c-1.6,0-2.6-0.1-3.3-0.2V203.7z M229.9,213c0.3,0,0.7,0,1.1,0c2.8,0,4.6-1.4,4.6-4
				c0-2.4-1.7-3.6-4.2-3.6c-0.7,0-1.2,0.1-1.4,0.1V213z"/>
			<path class="st0" d="M239.3,203.7c0.9-0.1,2.2-0.3,3.8-0.3c1.9,0,3.1,0.3,4,0.9c0.7,0.5,1.1,1.3,1.1,2.4c0,1.5-1.2,2.5-2.1,2.8
				v0.1c0.8,0.3,1.3,1.1,1.6,2.1c0.4,1.3,0.8,2.8,1,3.3h-2.8c-0.2-0.3-0.5-1.2-0.9-2.7c-0.4-1.4-0.9-1.8-2.1-1.8H242v4.5h-2.7V203.7
				z M242,208.6h1.2c1.4,0,2.2-0.6,2.2-1.6c0-1.1-0.8-1.6-2.1-1.6c-0.8,0-1.2,0-1.4,0.1V208.6z"/>
			<path class="st0" d="M252.3,212l-0.9,3.1h-2.9l3.9-11.5h3.7l4,11.5h-3l-1-3.1H252.3z M255.6,210l-0.8-2.5
				c-0.2-0.7-0.4-1.4-0.6-2.1h0c-0.2,0.6-0.4,1.4-0.6,2.1l-0.8,2.5H255.6z"/>
		</g>
	</g>
</g>
</svg>
