<?xml version="1.0" encoding="UTF-8"?>
<svg width="75px" height="72px" viewBox="0 0 75 72" version="1.1" xmlns="http://www.w3.org/2000/svg" xmlns:xlink="http://www.w3.org/1999/xlink">
    <!-- Generator: Sketch 53.2 (72643) - https://sketchapp.com -->
    <title>Group 39</title>
    <desc>Created with Sketch.</desc>
    <g id="Design" stroke="none" stroke-width="1" fill="none" fill-rule="evenodd">
        <g id="HP" transform="translate(-1163.000000, -6161.000000)" fill="#FFFFFF">
            <g id="Body" transform="translate(800.000000, 450.000000)">
                <g id="Footer" transform="translate(0.000000, 5251.000000)">
                    <g id="Group-39" transform="translate(363.000000, 460.000000)">
                        <path d="M46.373,1.3339 C46.739,0.2979 48.079,-0.3411 49.586,0.1919 C51.187,0.7589 51.56,1.9499 51.56,1.9499 L50.142,2.6669 C50.142,2.6669 49.891,1.9949 49.241,1.7659 C48.816,1.6149 48.434,1.7979 48.334,2.0809 C48.018,2.9759 51.246,3.5879 50.43,5.8959 C50.014,7.0739 48.674,7.7139 47.025,7.1299 C45.282,6.5139 44.787,5.0649 44.787,5.0649 L46.207,4.3499 C46.207,4.3499 46.522,5.2559 47.37,5.5559 C47.888,5.7389 48.336,5.5259 48.469,5.1489 C48.785,4.2549 45.556,3.6419 46.373,1.3339" id="Fill-1"></path>
                        <polygon id="Fill-4" points="56.8535 3.9228 58.4345 4.9798 54.5445 10.7988 52.9645 9.7428"></polygon>
                        <polygon id="Fill-6" points="67.4219 13.79 62.0849 18.311 61.0259 17.061 62.0549 12.246 59.0799 14.765 57.8539 13.316 63.1919 8.795 64.2579 10.054 63.2219 14.86 66.1939 12.341"></polygon>
                        <path d="M66.7676,24.6181 C67.1916,25.7401 68.2816,26.0761 68.2816,26.0761 L67.5486,27.5301 C67.5486,27.5301 65.9046,27.1381 65.1776,25.2211 C64.3986,23.1631 65.3846,20.9721 67.2546,20.2641 C69.1236,19.5551 71.3166,20.5421 72.0946,22.5981 C72.8036,24.4691 71.8316,25.8521 71.8316,25.8521 L70.3026,25.2031 C70.3026,25.2031 70.9136,24.2761 70.5056,23.2011 C70.0976,22.1261 69.0036,21.6331 67.9276,22.0401 C66.8526,22.4471 66.3596,23.5441 66.7676,24.6181" id="Fill-8"></path>
                        <polygon id="Fill-10" points="68.7979 36.8744 67.1979 36.9394 66.9749 31.4414 73.9709 31.1564 74.1919 36.5544 72.5919 36.6194 72.4499 33.1204 71.3499 33.1654 71.4609 35.8644 69.9609 35.9264 69.8499 33.2264 68.6509 33.2764"></polygon>
                        <path d="M70.8848,50.3705 L64.3988,47.7335 L65.1148,45.9735 L69.6548,47.8185 L70.0878,46.7535 L71.1548,47.1855 C70.9148,48.1695 71.5058,48.8415 71.5058,48.8415 L70.8848,50.3705 Z" id="Fill-13"></path>
                        <path d="M64.0664,55.6117 C63.7654,56.0097 63.8434,56.5707 64.2424,56.8727 C64.6404,57.1737 65.2024,57.0967 65.5034,56.6977 C65.8044,56.2997 65.7284,55.7397 65.3294,55.4367 C64.9294,55.1347 64.3694,55.2127 64.0664,55.6117 L64.0664,55.6117 Z M62.9724,54.4057 C63.9684,53.3407 65.4394,53.1367 66.4764,53.9227 C67.5524,54.7367 67.7754,56.3487 66.7794,57.6647 C65.7824,58.9797 64.1714,59.2027 63.0954,58.3867 C62.2974,57.7837 62.0524,56.7827 62.0524,56.7827 L60.8874,53.5167 L62.0954,51.9217 L62.9724,54.4057 Z" id="Fill-15"></path>
                        <path d="M56.9512,62.5805 C56.5462,62.8745 56.4562,63.4335 56.7502,63.8395 C57.0432,64.2435 57.6022,64.3335 58.0072,64.0405 C58.4122,63.7465 58.5022,63.1865 58.2092,62.7825 C57.9162,62.3765 57.3552,62.2875 56.9512,62.5805 L56.9512,62.5805 Z M56.2562,61.1075 C57.5192,60.3785 58.9862,60.6135 59.7502,61.6675 C60.5412,62.7615 60.2832,64.3685 58.9452,65.3375 C57.6092,66.3055 56.0022,66.0485 55.2092,64.9535 C54.6232,64.1425 54.6802,63.1125 54.6802,63.1125 L54.5182,59.6475 L56.1402,58.4745 L56.2562,61.1075 Z" id="Fill-17"></path>
                        <path d="M45.0889,66.6459 C44.6299,65.3249 45.3069,63.9239 46.8639,63.3819 C48.6109,62.7749 49.7909,63.5819 49.7909,63.5819 L49.1309,65.0289 C49.1309,65.0289 48.4139,64.6429 47.6579,64.9059 C47.0469,65.1189 46.8299,65.5649 46.9939,66.0369 C47.1579,66.5089 47.6039,66.7239 48.1699,66.5269 C48.7359,66.3299 48.8889,65.8539 48.8889,65.8539 L50.1819,65.6159 L51.2599,69.4739 L47.0099,70.9529 L46.4849,69.4419 L49.1289,68.5219 L48.8949,67.5449 C48.8949,67.5449 48.5819,67.8659 47.9689,68.0789 C46.7409,68.5049 45.5329,67.9209 45.0889,66.6459" id="Fill-19"></path>
                        <path d="M29.8945,69.6205 C29.5885,70.6775 28.2895,71.3955 26.7515,70.9535 C25.1195,70.4815 24.6735,69.3135 24.6735,69.3135 L26.0485,68.5135 C26.0485,68.5135 26.3395,69.1695 27.0015,69.3595 C27.4355,69.4845 27.8065,69.2785 27.8905,68.9905 C28.1525,68.0775 24.8905,67.6595 25.5695,65.3055 C25.9145,64.1025 27.2145,63.3845 28.8965,63.8695 C30.6735,64.3815 31.2535,65.7965 31.2535,65.7965 L29.8785,66.5975 C29.8785,66.5975 29.5095,65.7105 28.6455,65.4625 C28.1175,65.3095 27.6835,65.5495 27.5725,65.9335 C27.3105,66.8475 30.5725,67.2665 29.8945,69.6205" id="Fill-21"></path>
                        <polygon id="Fill-23" points="19.3105 67.6908 17.6665 66.7358 21.1855 60.6788 22.8295 61.6348"></polygon>
                        <polygon id="Fill-25" points="8.1172 58.4408 13.1792 53.6078 14.3102 54.7948 13.5682 59.6638 16.3892 56.9708 17.7012 58.3448 12.6382 63.1778 11.4982 61.9848 12.2482 57.1228 9.4282 59.8148"></polygon>
                        <path d="M8.1348,47.6147 C7.6428,46.5187 6.5348,46.2497 6.5348,46.2497 L7.1778,44.7537 C7.1778,44.7537 8.8458,45.0467 9.6878,46.9167 C10.5898,48.9257 9.7348,51.1737 7.9098,51.9947 C6.0838,52.8137 3.8358,51.9607 2.9338,49.9527 C2.1138,48.1277 3.0018,46.6857 3.0018,46.6857 L4.5688,47.2437 C4.5688,47.2437 4.0128,48.2057 4.4848,49.2557 C4.9568,50.3047 6.0798,50.7317 7.1308,50.2607 C8.1798,49.7887 8.6078,48.6647 8.1348,47.6147" id="Fill-27"></path>
                        <polygon id="Fill-29" points="5.3613 35.5072 6.9523 35.3452 7.5113 40.8142 0.5503 41.5272 0.0003 36.1562 1.5913 35.9932 1.9493 39.4752 3.0423 39.3622 2.7673 36.6772 4.2583 36.5242 4.5343 39.2092 5.7263 39.0872"></polygon>
                        <path d="M2.459,22.1737 L9.092,24.4057 L8.484,26.2057 L3.844,24.6427 L3.477,25.7327 L2.387,25.3657 C2.564,24.3707 1.934,23.7357 1.934,23.7357 L2.459,22.1737 Z" id="Fill-31"></path>
                        <path d="M8.9463,16.5263 C9.2223,16.1103 9.1123,15.5563 8.6953,15.2793 C8.2813,15.0023 7.7253,15.1133 7.4483,15.5283 C7.1723,15.9443 7.2823,16.4993 7.6993,16.7763 C8.1133,17.0523 8.6693,16.9423 8.9463,16.5263 L8.9463,16.5263 Z M10.1103,17.6633 C9.1833,18.7863 7.7273,19.0773 6.6443,18.3563 C5.5233,17.6083 5.2033,16.0143 6.1193,14.6413 C7.0333,13.2693 8.6273,12.9503 9.7503,13.6983 C10.5813,14.2533 10.8853,15.2363 10.8853,15.2363 L12.2463,18.4243 L11.1363,20.0893 L10.1103,17.6633 Z" id="Fill-33"></path>
                        <path d="M15.6279,9.1298 C16.0159,8.8138 16.0699,8.2508 15.7539,7.8628 C15.4379,7.4768 14.8729,7.4208 14.4869,7.7378 C14.0999,8.0548 14.0449,8.6178 14.3609,9.0048 C14.6779,9.3918 15.2419,9.4468 15.6279,9.1298 L15.6279,9.1298 Z M16.4099,10.5578 C15.1929,11.3598 13.7149,11.2138 12.8909,10.2078 C12.0349,9.1638 12.1969,7.5458 13.4749,6.4998 C14.7499,5.4538 16.3689,5.6148 17.2239,6.6588 C17.8569,7.4328 17.8609,8.4638 17.8609,8.4638 L18.2309,11.9108 L16.6819,13.1788 L16.4099,10.5578 Z" id="Fill-35"></path>
                        <path d="M27.2422,4.3466 C27.7792,5.6396 27.1852,7.0766 25.6622,7.7106 C23.9552,8.4206 22.7272,7.6856 22.7272,7.6856 L23.3032,6.2006 C23.3032,6.2006 24.0392,6.5436 24.7782,6.2376 C25.3792,5.9876 25.5682,5.5306 25.3762,5.0686 C25.1842,4.6066 24.7262,4.4166 24.1722,4.6486 C23.6172,4.8776 23.4942,5.3636 23.4942,5.3636 L22.2172,5.6766 L20.9122,1.8876 L25.0682,0.1596 L25.6822,1.6376 L23.0972,2.7126 L23.3882,3.6746 C23.3882,3.6746 23.6812,3.3356 24.2812,3.0856 C25.4822,2.5866 26.7232,3.0996 27.2422,4.3466" id="Fill-37"></path>
                    </g>
                </g>
            </g>
        </g>
    </g>
</svg>